<svg id="Layer_2" data-name="Layer 2" xmlns="http://www.w3.org/2000/svg" width="500" height="100" viewBox="0 0 500 100"><defs><style>.cls-1{fill:#262428;}.cls-2{fill:#ee822e;}</style></defs><title>Artboard 2</title><path class="cls-1" d="M18.92,97.14H3A1.47,1.47,0,0,1,1.5,95.67v-88A1.47,1.47,0,0,1,3,6.14H18A1.47,1.47,0,0,1,19.5,7.62V69.7A1.47,1.47,0,0,0,22,70.76L89.07,6.55a1.5,1.5,0,0,1,1-.41H109a1.48,1.48,0,0,1,1,2.52L68.58,50.06a1.47,1.47,0,0,0,0,2.12l46.09,42.41a1.47,1.47,0,0,1-1,2.55H94a1.47,1.47,0,0,1-1-.34L55.5,65a1.47,1.47,0,0,0-2,.06L19.93,96.74A1.48,1.48,0,0,1,18.92,97.14Z"/><path class="cls-2" d="M148,80.64c-7-1.4-9.56-8-10.48-12.25a3,3,0,0,1,3-3.57c12.34.58,53.7,2.21,71.46-1.18,21.54-4.1,19-29,17.5-36.5-1.23-6.13-3.7-10.4-6.79-13.26a22.37,22.37,0,0,0-15.19-5.74h-56s-24.09-.33-29.5,19.5c-4.5,16.5-5,25-2,45,2.56,17.08,19.28,23.19,25.13,24.61a13.61,13.61,0,0,0,3.37.38l75.07-.47a3,3,0,0,0,2.93-3v-10a2.94,2.94,0,0,0-3-3C210.17,81.47,156.74,82.39,148,80.64Zm-10-47a14,14,0,0,1,4.83-7.34c2.39-1.84,5.42-2.39,8.44-2.46,7.73-.2,50.59-1.16,56.73.8,7.68,2.46,7,10,6,16a8.13,8.13,0,0,1-4.09,6,21.24,21.24,0,0,1-9.19,2h-61.9a2.93,2.93,0,0,1-2.95-3A46,46,0,0,1,138,33.64Z"/><path class="cls-2" d="M357.5,35.14c-.95-22.9-23.32-26.22-25.35-26.48l-.28,0L255.8,8.16a2.28,2.28,0,0,0-2.3,2.28V21.8a2.27,2.27,0,0,0,2.33,2.28c12.32-.3,69.54-1.5,76.67,2.06A14.18,14.18,0,0,1,340,35.21a2.28,2.28,0,0,1-2.23,2.89c-12-.16-60.3-.7-67.3,1-8,2-13,5-17,9s-11,14-6,33c4.82,18.32,30.08,16.19,31.9,16h75.87a2.27,2.27,0,0,0,2.28-2.22C357.75,86.44,358.36,55.67,357.5,35.14ZM342,79.36a2.28,2.28,0,0,1-2.28,2.28H280s-12.39.22-16-7c-4-8,3-18,11-19,5.89-.73,53.75-.17,64.75,0A2.29,2.29,0,0,1,342,57.9Z"/><path class="cls-2" d="M498.39,82.53a1.63,1.63,0,0,0-1.63-1.67c-10.76.3-71.48,1.1-79.2-2.24-9.89-4.28-10-12.45-10.11-19,0-.13-.08-8.23-.17-14.71h65.59a1.62,1.62,0,0,0,1.63-1.62V29.2a1.62,1.62,0,0,0-1.63-1.62H407.11c0-8.87-.08-20.33-.11-24.54a.88.88,0,0,0-.86-.9L392,2.29a1.63,1.63,0,0,0-1.56,1.64c-.07,3.71,0,12.76.2,23.65H372.13a1.62,1.62,0,0,0-1.63,1.62V43.33A1.62,1.62,0,0,0,372.13,45H391c.23,8.61.52,17.27.88,24.68,1.24,25.65,26.52,27.81,27.3,27.87h0l77.71.36a1.64,1.64,0,0,0,1.59-1.7Z"/></svg>
