<svg id="Layer_1" data-name="Layer 1" xmlns="http://www.w3.org/2000/svg" width="686" height="229" viewBox="0 0 686 229"><defs><style>.cls-1{fill:#f4a009;}</style></defs><title>s_logo</title><path d="M266.78,33.14c0,13-17.4,35.6-29.8,35.6-2.4,0-7.8-2.2-7.8-4.4,0-5.2,10.6-13.4,17.6-13.4,1.8,0,4.4-.2,6-1.2,4.4-3,9-11.8,9-17,0-4.8-1.6-7.4-12.2-7.4-11,0-48,14-48,31.2,0,13,25.2,20.8,31.2,43.8,5.8.6,29.6,3.2,29.6,8.8,0,.8-.4,2.4-1.6,2.4a26.46,26.46,0,0,1-4.8-.8c-2.8-.8-2.2-2.4-5-3.2a97.93,97.93,0,0,0-17.4-3.2,53.17,53.17,0,0,1,1.2,12.4c0,28.4-19.8,54.4-40.8,71.4-20.6,16.6-49.4,26-71.4,26-21.2,0-35.8-10-35.8-31.2,0-25,24-52.8,60.8-69.2,25.6-11.4,47.4-14.4,71.4-14.4-8.8-19-32.8-28-32.8-40.6,0-21.6,44.6-38,62.8-38C258.58,20.74,266.78,22.74,266.78,33.14ZM93.38,182.74c0,16,9.8,22,25.4,22,21.2,0,47.6-9.4,66.2-24.8,18.2-15,36.8-37.6,36.8-62.6,0-5-.2-9.2-1.6-13.6-25,0-47.2,3.2-70.8,13.6C114.58,132.94,93.38,159.34,93.38,182.74Z"/><path class="cls-1" d="M269.74,93.44l-22-20.52a1.16,1.16,0,0,1,0-1.69L260.8,58.47a1.24,1.24,0,0,1,2,.57l8.9,33.29A1.19,1.19,0,0,1,269.74,93.44Z"/><path d="M72.46,174.64a9.81,9.81,0,0,1-11.58,7.6c-15.05-3.05-42.31-14-50.56-53.28-11.59-55.24,23.81,3.94,47.78,5.89S25.85,111.12,19.3,80.42s24,14,46.07,26.88S25.19,69.84,22.14,45.47s.56-56.26,9.43-29.39,42.75,84.07,62.91,95.77S92.59,132.42,82,149.27C76.7,157.74,73.89,167.68,72.46,174.64Z"/><path d="M345,155.6a49.63,49.63,0,0,1-3.06,17.73,40.6,40.6,0,0,1-8.64,13.89,38.62,38.62,0,0,1-13.41,9,48.2,48.2,0,0,1-34.59,0,38.68,38.68,0,0,1-13.38-9,40.6,40.6,0,0,1-8.64-13.89,52.89,52.89,0,0,1,0-35.46A40.93,40.93,0,0,1,271.91,124a38.83,38.83,0,0,1,13.38-9.09,47.78,47.78,0,0,1,34.59,0A38.76,38.76,0,0,1,333.29,124a40.93,40.93,0,0,1,8.64,13.92A49.63,49.63,0,0,1,345,155.6Zm-11.94,0a43.7,43.7,0,0,0-2.16-14.22,30.08,30.08,0,0,0-6.12-10.65,26.56,26.56,0,0,0-9.6-6.69A34.93,34.93,0,0,0,290,124a26.84,26.84,0,0,0-9.63,6.69,29.83,29.83,0,0,0-6.15,10.65,47.79,47.79,0,0,0,0,28.41,29.87,29.87,0,0,0,6.15,10.62,26.52,26.52,0,0,0,9.63,6.66,35.36,35.36,0,0,0,25.14,0,26.24,26.24,0,0,0,9.6-6.66,30.12,30.12,0,0,0,6.12-10.62A43.42,43.42,0,0,0,333.05,155.6Z"/><path d="M398,112.58a47.62,47.62,0,0,1,14.19,1.89,27.26,27.26,0,0,1,10,5.37,21.64,21.64,0,0,1,5.91,8.4,29.57,29.57,0,0,1,1.95,11,28,28,0,0,1-2.1,11,23.62,23.62,0,0,1-6.15,8.58,28.6,28.6,0,0,1-10,5.61,43.13,43.13,0,0,1-13.77,2h-13.8v32.16H372.65v-86Zm0,44.58a26.82,26.82,0,0,0,8.79-1.32,18.34,18.34,0,0,0,6.42-3.69,15.17,15.17,0,0,0,3.93-5.67,19.38,19.38,0,0,0,1.32-7.26q0-8.22-5.07-12.84T398,121.76h-13.8v35.4Z"/><path d="M525.41,112.58v86H513.77V159.44H467.39v39.12H455.75v-86h11.64v38.34h46.38V112.58Z"/><path d="M570.05,198.56H558.41v-86h11.64Z"/><path d="M673,198.56h-9a3.87,3.87,0,0,1-2.52-.78,4.8,4.8,0,0,1-1.44-2L652,175H613.37l-8,20.76a4.21,4.21,0,0,1-1.38,1.92,3.83,3.83,0,0,1-2.52.84h-9l34.38-86h11.76Zm-24.24-31.92-13.5-35q-.6-1.56-1.26-3.63t-1.26-4.41a65.38,65.38,0,0,1-2.58,8.1l-13.5,34.92Z"/></svg>
