<svg id="Layer_1" data-name="Layer 1" xmlns="http://www.w3.org/2000/svg" width="1200" height="400" viewBox="0 0 1200 400"><defs><style>.cls-1{fill:#b8b8b8;}.cls-2{fill:#d2d2d2;}.cls-3{fill:#e7e9e8;}.cls-4{fill:#fff;}.cls-5,.cls-7{fill:#f6b2e7;}.cls-5{opacity:0.82;}.cls-6{opacity:0.77;}.cls-8{fill:#fcee21;}</style></defs><title>sprite_med_zebra</title><path class="cls-1" d="M180.63,311a5,5,0,0,0,.2,2.29l.17.53,1.05,3.25c.91,2.81-.76,5.87-3.22,5.87H168.31c-2.48,0-4.16-3.15-3.18-6l.19-.53c.08-.25.14-.5.2-.76a5.85,5.85,0,0,0,0-1.39l-2.08-23.16c-.23-2.53,1.37-4.75,3.44-4.75h12.93c2.14,0,3.77,2.38,3.42,5Z"/><path class="cls-2" d="M289.49,352.9a3.82,3.82,0,0,1-1.64,5.94l-20.2,7.22a3.81,3.81,0,0,1-5-3.19l-.79-6.54a2.89,2.89,0,0,0-.16-.66,1.31,1.31,0,0,0-.09-.28l-6.52-16.82-3.61-9.3-4.34-11.19L243.22,308,228,268.87a3.79,3.79,0,0,1,2.19-5L252.37,256a3.78,3.78,0,0,1,4.88,2.55l8.18,27.71,2.68,9.08,3.88,13.1,2.79,9.46L282.2,343a4,4,0,0,0,.66,1.29l.16.21Z"/><path class="cls-1" d="M111.39,255.23,95.46,258.7l-17.2,16.49a2.63,2.63,0,0,1-2.84.51,2.61,2.61,0,0,1-.7-4.35l18.2-17.44,22.27-4.85"/><path class="cls-1" d="M104.64,252.26a3.43,3.43,0,0,1,.74-1.23A3.7,3.7,0,0,1,107,250l5.71-1.81,11.19-3.55,7.62-2.41,9.59-3,7.67-2.43,91.67-29a3.77,3.77,0,0,1,4.88,3.2l7.66,72a5.06,5.06,0,0,1-4.68,5.59l-96.13,6.67-7.58.52-11.25.78-5.32.37a3.78,3.78,0,0,0-3.74,3.26l-1.08,8-1.19,8.84-1.52,11.27a3.91,3.91,0,0,0,.12,1.56.74.74,0,0,1,0,.14l1.55,4.65a3.76,3.76,0,0,1-3.57,5H104.38a3.76,3.76,0,0,1-3.51-5.16,4.59,4.59,0,0,0,.33-1.36,2.57,2.57,0,0,0,0-.48l-2-27.82-.53-7.44a4,4,0,0,1,0-.77l.62-4.66,4.26-32.33"/><path class="cls-2" d="M220,364.66a3.3,3.3,0,0,1-3,4.38H193.94a3.28,3.28,0,0,1-3.08-4l1.72-8.46v-.07a3,3,0,0,0,.06-.73l-.27-10.56-.26-9.86-.42-16L191.42,309l-1.29-48.79a3.26,3.26,0,0,1,3.15-3.43H218a3.26,3.26,0,0,1,3.15,3.53l-1.91,35-.54,9.9-.91,16.63-.49,9.14-1.14,20.85a2.9,2.9,0,0,0,.14,1.17s0,.05,0,.07Z"/><path d="M217,369H193.94a3.28,3.28,0,0,1-3.08-4l1.72-8.46v-.07L216.33,353s0,.05,0,.07L220,364.66A3.3,3.3,0,0,1,217,369Z"/><path d="M287.85,358.84l-20.2,7.22a3.81,3.81,0,0,1-5-3.19l-.79-6.54a2.89,2.89,0,0,0-.16-.66L283,344.53l6.47,8.37A3.82,3.82,0,0,1,287.85,358.84Z"/><path d="M178.83,322.92H168.31c-2.48,0-4.16-3.15-3.18-6l.19-.53c.08-.25.14-.5.2-.76L181,313.8l1.05,3.25C183,319.86,181.29,322.92,178.83,322.92Z"/><path d="M118.67,339.45h-14.3a3.76,3.76,0,0,1-3.5-5.16,4.59,4.59,0,0,0,.33-1.36l19.45-3.23a.74.74,0,0,1,0,.14l1.55,4.65A3.76,3.76,0,0,1,118.67,339.45Z"/><path d="M123.24,308l-1.19,8.84-16.13-2.47a1.64,1.64,0,0,1,0-3.23Z"/><path d="M117.92,303.81l-18.71.82-.53-7.44a4,4,0,0,1,0-.77l.62-4.66,19.21,8.92A1.64,1.64,0,0,1,117.92,303.81Z"/><path d="M219.27,295.32l-.54,9.9-19.69-3a1.64,1.64,0,0,1,0-3.24Z"/><path d="M217.82,321.85l-.49,9.14-17.42-2.66a1.64,1.64,0,0,1,0-3.24Z"/><path d="M213,315.52l-21.3,3.85L191.42,309,213,312.28A1.64,1.64,0,0,1,213,315.52Z"/><path d="M212.12,341.63l-19.75,3.57-.26-9.86,20,3.05A1.64,1.64,0,0,1,212.12,341.63Z"/><path d="M272,326.57l-16.94,12-3.61-9.3,19.14-5.61A1.64,1.64,0,0,1,272,326.57Z"/><path d="M272,308.43l2.79,9.46-19.36,3.76a1.64,1.64,0,0,1-1.13-3Z"/><path d="M265.78,304.05l-18.65,14L243.22,308l21.06-6.84A1.64,1.64,0,0,1,265.78,304.05Z"/><path d="M265.43,286.25l2.68,9.08-17.69,4.24a1.64,1.64,0,0,1-1.27-3Z"/><path d="M120.21,294.13l-15.79-21.75a1.09,1.09,0,0,1-.21-.76L105.83,252a1.13,1.13,0,0,0-.38-.94l-.07-.07A3.7,3.7,0,0,1,107,250l5.71-1.81.5.77a1.1,1.1,0,0,1,.17.69l-1.33,20.7a1.09,1.09,0,0,0,.1.54l10,22.14A1.14,1.14,0,0,1,120.21,294.13Z"/><path d="M134.12,287.49l-.74,8.95-5.32.37a3.74,3.74,0,0,0-2.37.84l.57-8.86a1.27,1.27,0,0,0-.11-.54l-10-22.13a1.14,1.14,0,0,1,2-1.14l15.78,21.74A1.13,1.13,0,0,1,134.12,287.49Z"/><path d="M138.48,284.55,122.7,262.81a1.11,1.11,0,0,1-.21-.76l1.44-17.45,7.62-2.41-1.2,18.55a1.27,1.27,0,0,0,.11.54l10,22.13A1.14,1.14,0,0,1,138.48,284.55Z"/><path d="M153.27,282.26l-1.06,12.88-7.58.52.77-12.09a1.11,1.11,0,0,0-.1-.54l-10-22.13a1.13,1.13,0,0,1,2-1.14l15.79,21.74A1.09,1.09,0,0,1,153.27,282.26Z"/><path d="M155.89,276.72,140.1,255a1.25,1.25,0,0,1-.21-.77l1.25-15.05,7.67-2.43-1.05,16.18a1.14,1.14,0,0,0,.11.54l10,22.13A1.14,1.14,0,0,1,155.89,276.72Z"/><path class="cls-3" d="M298.42,136.38a10.34,10.34,0,0,1-1.87-14.57c6.31-8.07,9-20.26,5.38-34.08-6.51-25.2-16.5-50.67-23.79-50S259.25,64,253.72,87.68c-2.05,8.75-2.32,17-.87,23.89a10.39,10.39,0,0,1-7.44,12.18l-49.7,13.34a10.38,10.38,0,0,1-12.6-7,59.65,59.65,0,0,0-9.53-18c-14.64-19.42-35.53-38-42.52-35.78s-5.79,29.65-1.56,55.32c2.16,13.11,8.67,22.75,16.85,27.92a10.25,10.25,0,0,1,4.06,12.22l-7.26,19.68a10.42,10.42,0,0,0,.25,7.8L176,272.56a10.35,10.35,0,0,0,12.16,5.8l123.09-33a10.37,10.37,0,0,0,7.65-10.74l-5.75-82.5a10.4,10.4,0,0,0-4-7.5Z"/><path d="M235.54,128.63l-3.17,7a7.84,7.84,0,0,1-4.55,4.18l-3.6,1.28a7.88,7.88,0,0,1-6.47-.53l-8.9-4.91a7.88,7.88,0,0,1-3.82-4.9L197,100.28a11.57,11.57,0,0,1,8-14.19l8.33-2.3a11.56,11.56,0,0,1,14.18,8L236,123.31A7.87,7.87,0,0,1,235.54,128.63Z"/><path d="M283.34,248.06a27.22,27.22,0,0,0-16.56-18.63,4.8,4.8,0,1,0-7.79-2.52,4,4,0,0,0,.23.66,29.67,29.67,0,0,0-20.7,5.57,4.79,4.79,0,1,0-6,6,27.17,27.17,0,0,0-4.73,23,26.81,26.81,0,0,0,2,5.3l54.35-14.6A26.64,26.64,0,0,0,283.34,248.06Z"/><circle class="cls-4" cx="200.93" cy="235.04" r="22.09"/><circle cx="209.47" cy="233.65" r="13.45"/><circle cx="194.03" cy="222.53" r="2.88"/><circle class="cls-4" cx="291.69" cy="206.64" r="22.09"/><circle cx="300.22" cy="205.25" r="13.45"/><circle cx="284.78" cy="194.13" r="2.88"/><path class="cls-5" d="M136.94,123.27c-8.48-25.73-3.88-40.39,11.39-28.13,7.24,5.42,14.26,13.84,18.37,19.9,4.25,6.34,5.59,10.32,4.64,13.5s-3.44,6.31-5.46,11.39c-2.15,4.8-3.82,11.57-6.17,15.47C155.77,164.56,145.4,149,136.94,123.27Z"/><path class="cls-5" d="M293.59,83.29c-1-25.2-11.89-36-21.27-20.28-4.57,7.1-8,16.74-9.58,23.37-1.65,6.92-1.52,10.82.35,13.28s5.09,4.38,8.53,8.15c3.46,3.48,7.37,8.78,10.71,11.42C288.78,125.91,298.88,113.67,293.59,83.29Z"/><path d="M237.81,186.82l-17.32-38.45a1.9,1.9,0,0,1,1.23-2.6l13.4-3.65a1.89,1.89,0,0,1,2.38,1.64l3.91,42.11A1.89,1.89,0,0,1,237.81,186.82Z"/><path d="M254.43,196l-.9-26.78a1.18,1.18,0,0,0-.16-.58L242,148.77a1.28,1.28,0,0,1-.16-.77l2.41-21a1.26,1.26,0,0,1,1-1.08l12.89-3.05a1.26,1.26,0,0,1,1.46,1.7l-8.95,21.79a1.26,1.26,0,0,0,.08,1.12l11.15,18.59a1.18,1.18,0,0,1,.16.86l-5,29.23A1.26,1.26,0,0,1,254.43,196Z"/><path d="M235.13,199.89l-14.81-22.34a1.26,1.26,0,0,1-.2-.57l-2.22-22.79a1.28,1.28,0,0,0-.32-.72l-14.14-15.7a1.27,1.27,0,0,0-1.41-.32l-12.27,5a1.26,1.26,0,0,0-.2,2.23l19.93,12.56a1.24,1.24,0,0,1,.58,1l1.7,21.61a1.25,1.25,0,0,0,.37.79l21.05,20.89A1.26,1.26,0,0,0,235.13,199.89Z"/><path d="M199.46,197.35c-1.78-4.07-14-7.82-23.27-.39-9.3,7-15.72,19.65-15.83,20.49.17,1,7.75-8.72,18.92-12.87C190.46,200.19,201.22,201.46,199.46,197.35Z"/><path d="M272.66,172.21c-.06-4.05,8.65-11.79,19.13-9.13,10.36,2.3,20.46,10.33,20.87,11,.24.9-9.72-4.29-20.55-3.5C281.19,171.15,272.76,176.27,272.66,172.21Z"/><g class="cls-6"><path class="cls-7" d="M261,254.13a12,12,0,0,1-12.82-2.7,1.41,1.41,0,1,1,2-2,9.06,9.06,0,0,0,15.52-6.13,1.42,1.42,0,0,1,2.83.12A12,12,0,0,1,261,254.13Z"/></g><path d="M74.47,286.19h0a1,1,0,0,0-1.43-.65l-9.38,6.26c-.71.48-1.75-.37-1.36-1.13l4.28-8.31a4.8,4.8,0,0,0,.34-.86l1.23-4.19a4.89,4.89,0,0,1,1.71-2.5l4.3-3.28a.9.9,0,0,1,1,0l4,2c.41.26.31,1.58.11,2l-3.18,11.11A.93.93,0,0,1,74.47,286.19Z"/><path class="cls-1" d="M580.63,311a5,5,0,0,0,.2,2.29l.17.53,1,3.25c.91,2.81-.76,5.87-3.22,5.87H568.31c-2.48,0-4.16-3.15-3.18-6l.19-.53c.08-.25.14-.5.2-.76a5.85,5.85,0,0,0,.05-1.39l-2.08-23.16c-.23-2.53,1.37-4.75,3.44-4.75h12.93c2.14,0,3.77,2.38,3.42,5Z"/><path class="cls-2" d="M715.33,320.33a3.81,3.81,0,0,1,2.16,5.77l-12.08,17.72a3.81,3.81,0,0,1-5.93.37L695,339.37a2.64,2.64,0,0,0-.51-.44,1.77,1.77,0,0,0-.24-.17L679.07,329l-8.39-5.39-10.1-6.5-9.07-5.83-35.33-22.72a3.78,3.78,0,0,1-1.14-5.3l13.25-19.44a3.79,3.79,0,0,1,5.45-.81l22.91,17.59,7.52,5.76L675,294.67l7.82,6,20.8,16a4.1,4.1,0,0,0,1.28.66l.26.07Z"/><path class="cls-1" d="M514.05,260.35l-15.18-5.94-23.46,4.21a2.59,2.59,0,0,1-2.64-1.15,2.56,2.56,0,0,1-.43-1.38,2.68,2.68,0,0,1,2.25-2.63L499.41,249l21.22,8.29"/><path class="cls-1" d="M504.64,252.26a3.43,3.43,0,0,1,.74-1.23A3.7,3.7,0,0,1,507,250l5.71-1.81,11.19-3.55,7.62-2.41,9.59-3,7.67-2.43,91.67-29a3.77,3.77,0,0,1,4.88,3.2l7.66,72a5.06,5.06,0,0,1-4.68,5.59l-96.13,6.67-7.58.52-11.25.78-5.32.37a3.78,3.78,0,0,0-3.74,3.26l-1.08,8-1.19,8.84-1.52,11.27a3.91,3.91,0,0,0,.12,1.56.74.74,0,0,1,0,.14l1.55,4.65a3.76,3.76,0,0,1-3.57,5H504.38a3.76,3.76,0,0,1-3.51-5.16,4.59,4.59,0,0,0,.33-1.36,2.57,2.57,0,0,0,0-.48l-2-27.82-.53-7.44a4,4,0,0,1,0-.77l.62-4.66,4.26-32.33"/><path class="cls-2" d="M620,364.66a3.3,3.3,0,0,1-3,4.38H593.94a3.28,3.28,0,0,1-3.08-4l1.72-8.46v-.07a3,3,0,0,0,.06-.73l-.27-10.56-.26-9.86-.42-16L591.42,309l-1.29-48.79a3.26,3.26,0,0,1,3.15-3.43H618a3.26,3.26,0,0,1,3.15,3.53l-1.91,35-.54,9.9-.91,16.63-.49,9.14-1.14,20.85a2.9,2.9,0,0,0,.14,1.17s0,.05,0,.07Z"/><path d="M617,369H593.94a3.28,3.28,0,0,1-3.08-4l1.72-8.46v-.07L616.33,353s0,.05,0,.07L620,364.66A3.3,3.3,0,0,1,617,369Z"/><path d="M717.49,326.1l-12.08,17.72a3.81,3.81,0,0,1-5.93.37L695,339.37a2.64,2.64,0,0,0-.51-.44l10.69-21.56,10.16,3A3.81,3.81,0,0,1,717.49,326.1Z"/><path d="M578.83,322.92H568.31c-2.48,0-4.16-3.15-3.18-6l.19-.53c.08-.25.14-.5.2-.76L581,313.8l1,3.25C583,319.86,581.29,322.92,578.83,322.92Z"/><path d="M518.67,339.45h-14.3a3.76,3.76,0,0,1-3.5-5.16,4.59,4.59,0,0,0,.33-1.36l19.45-3.23a.74.74,0,0,1,0,.14l1.55,4.65A3.76,3.76,0,0,1,518.67,339.45Z"/><path d="M523.24,308l-1.19,8.84-16.13-2.47a1.64,1.64,0,0,1-.05-3.23Z"/><path d="M517.92,303.81l-18.71.82-.53-7.44a4,4,0,0,1,0-.77l.62-4.66,19.21,8.92A1.64,1.64,0,0,1,517.92,303.81Z"/><path d="M619.27,295.32l-.54,9.9-19.69-3a1.64,1.64,0,0,1,0-3.24Z"/><path d="M617.82,321.85l-.49,9.14-17.42-2.66a1.64,1.64,0,0,1,0-3.24Z"/><path d="M613,315.52l-21.3,3.85L591.42,309,613,312.28A1.64,1.64,0,0,1,613,315.52Z"/><path d="M612.12,341.63l-19.75,3.57-.26-9.86,20,3.05A1.64,1.64,0,0,1,612.12,341.63Z"/><path d="M685.71,309.32,679.07,329l-8.39-5.39,12.17-15.8A1.64,1.64,0,0,1,685.71,309.32Z"/><path d="M675,294.67l7.82,6-13.44,14.43a1.64,1.64,0,0,1-2.7-1.79Z"/><path d="M667.41,294.78l-6.83,22.32-9.07-5.83,13-17.92A1.63,1.63,0,0,1,667.41,294.78Z"/><path d="M656.65,280.59l7.52,5.76L652.36,300.2a1.65,1.65,0,0,1-2.79-1.66Z"/><path d="M520.21,294.13l-15.79-21.75a1.09,1.09,0,0,1-.21-.76L505.83,252a1.13,1.13,0,0,0-.38-.94l-.07-.07A3.7,3.7,0,0,1,507,250l5.71-1.81.5.77a1.1,1.1,0,0,1,.17.69l-1.33,20.7a1.09,1.09,0,0,0,.1.54l10,22.14A1.14,1.14,0,0,1,520.21,294.13Z"/><path d="M534.12,287.49l-.74,8.95-5.32.37a3.74,3.74,0,0,0-2.37.84l.57-8.86a1.27,1.27,0,0,0-.11-.54l-10-22.13a1.14,1.14,0,0,1,2-1.14l15.78,21.74A1.13,1.13,0,0,1,534.12,287.49Z"/><path d="M538.48,284.55,522.7,262.81a1.11,1.11,0,0,1-.21-.76l1.44-17.45,7.62-2.41-1.2,18.55a1.27,1.27,0,0,0,.11.54l10,22.13A1.14,1.14,0,0,1,538.48,284.55Z"/><path d="M553.27,282.26l-1.06,12.88-7.58.52.77-12.09a1.11,1.11,0,0,0-.1-.54l-10-22.13a1.13,1.13,0,0,1,1.95-1.14l15.79,21.74A1.09,1.09,0,0,1,553.27,282.26Z"/><path d="M555.89,276.72,540.1,255a1.25,1.25,0,0,1-.21-.77l1.25-15.05,7.67-2.43-1,16.18a1.14,1.14,0,0,0,.11.54l10,22.13A1.14,1.14,0,0,1,555.89,276.72Z"/><path class="cls-3" d="M709.42,142.93a11.4,11.4,0,0,1,1.64-16.11c8.8-7.07,14.69-19.49,14.32-35.21-.67-28.67-5-58.5-13-59.58s-26.84,23.42-38.71,47.45c-4.39,8.87-6.74,17.62-6.92,25.41a11.45,11.45,0,0,1-11,11.21L599,118a11.43,11.43,0,0,1-11.77-10.68,65.62,65.62,0,0,0-5.72-21.68c-10.84-24.51-28.6-49.69-36.66-49s-13.64,30.36-15.54,59c-1,14.61,3.61,26.59,11.09,34.18a11.31,11.31,0,0,1,1.3,14.14L529,163.13a11.4,11.4,0,0,0-1.68,8.43l16.59,86.82a11.44,11.44,0,0,0,11.6,9.27L695.88,263a11.42,11.42,0,0,0,10.9-9.6l14.49-90a11.37,11.37,0,0,0-2.44-9.06Z"/><path d="M643.9,118.86l-5.15,6.69a8.72,8.72,0,0,1-5.93,3.34l-4.19.47a8.7,8.7,0,0,1-6.81-2.18l-8.32-7.51a8.71,8.71,0,0,1-2.87-6.21l-1-34.69a12.74,12.74,0,0,1,12.18-13.2l9.52-.38a12.74,12.74,0,0,1,13.2,12.18l1.18,35.89A8.7,8.7,0,0,1,643.9,118.86Z"/><path d="M665.26,259a30,30,0,0,0-13.11-24.15,5.28,5.28,0,1,0-7.72-4.65,4.78,4.78,0,0,0,.08.76,32.7,32.7,0,0,0-23.61.8,5.28,5.28,0,1,0-7.92,4.89,29.93,29.93,0,0,0-10.84,23.47,29.28,29.28,0,0,0,.77,6.18l62-2.05A29.45,29.45,0,0,0,665.26,259Z"/><circle class="cls-4" cx="580.1" cy="224.36" r="24.34"/><circle cx="589.6" cy="225.01" r="14.82"/><circle cx="575.83" cy="209.22" r="3.18"/><circle class="cls-4" cx="684.59" cy="216.63" r="24.34"/><circle cx="694.1" cy="217.27" r="14.82"/><circle cx="680.32" cy="201.48" r="3.18"/><path class="cls-5" d="M539.44,88.4c-2.66-29.73,5.95-44.3,19.27-27.33,6.41,7.63,11.83,18.43,14.72,26,3,7.87,3.41,12.47,1.6,15.64s-5.27,5.91-8.71,10.87c-3.51,4.61-7,11.45-10.5,15C549.3,137.42,542.07,118.12,539.44,88.4Z"/><path class="cls-5" d="M717.54,84.76c5.24-27.29-3.75-41.57-17.74-27.09-6.69,6.47-12.74,16-16.14,22.67-3.5,7-4.34,11.23-2.95,14.34s4.37,6,7.11,10.88c2.84,4.6,5.71,11.27,8.63,14.93C701.7,129.28,715.6,118.68,717.54,84.76Z"/><path d="M632,183l-9.21-46.94a1.88,1.88,0,0,1,1.78-2.25l15.75-.58a1.88,1.88,0,0,1,1.94,2.14l-6.54,47.53A1.89,1.89,0,0,1,632,183Z"/><path d="M647.28,195.88l5.75-29a1.38,1.38,0,0,0,0-.67l-7.27-24.16a1.44,1.44,0,0,1,0-.87l7.84-21.92a1.39,1.39,0,0,1,1.3-.91l14.6,0a1.38,1.38,0,0,1,1.13,2.19l-15.06,21.14a1.41,1.41,0,0,0-.19,1.23l7.31,22.73a1.47,1.47,0,0,1,0,1l-12.73,30.1A1.39,1.39,0,0,1,647.28,195.88Z"/><path d="M625.6,195.22l-10.29-27.68a1.36,1.36,0,0,1-.08-.66l3.32-25a1.35,1.35,0,0,0-.16-.86l-11.23-20.38a1.36,1.36,0,0,0-1.43-.7l-14.42,2.28a1.38,1.38,0,0,0-.77,2.34L608.77,143a1.4,1.4,0,0,1,.39,1.18l-3.59,23.61a1.44,1.44,0,0,0,.19.95l17.36,27.68A1.39,1.39,0,0,0,625.6,195.22Z"/><path d="M587,174.56c-.89-4.81-13.07-11.91-24.87-6.25-11.74,5.21-21.79,17.15-22.13,18-.06,1.12,10.51-7.41,23.53-9.07C576.59,175.35,587.82,179.4,587,174.56Z"/><path d="M671.8,167.92c1-4.36,12.23-10.48,22.81-5,10.55,5.06,19.37,16.21,19.65,17,0,1-9.36-7-21.17-8.9C681.22,168.92,670.89,172.3,671.8,167.92Z"/><g class="cls-6"><path class="cls-7" d="M636.18,259.67c-6.58,1-13.33-3.05-17.2-10.25a2.73,2.73,0,0,1,.52-3.38,1.88,1.88,0,0,1,2.81.85c3,5.53,8.13,8.62,13.14,7.88s9-5.19,10.3-11.34a1.88,1.88,0,0,1,2.44-1.63,2.74,2.74,0,0,1,1.48,3.09C648.05,252.9,642.75,258.7,636.18,259.67Z"/></g><polygon class="cls-8" points="598.28 232.94 591.85 231.08 588.13 236.64 586.53 230.14 579.85 229.7 584.68 225.06 581.72 219.06 588.15 220.92 591.87 215.36 593.47 221.86 600.15 222.3 595.32 226.94 598.28 232.94"/><polygon class="cls-8" points="704.28 223.94 697.85 222.08 694.13 227.64 692.53 221.14 685.85 220.7 690.68 216.06 687.72 210.06 694.15 211.92 697.87 206.36 699.47 212.86 706.15 213.3 701.32 217.94 704.28 223.94"/><path d="M466.17,265.68h0a1,1,0,0,0-.84-1.33l-11.27,0a1,1,0,0,1-.51-1.7l8.17-4.55a4.93,4.93,0,0,0,.76-.53l3.34-2.8a4.85,4.85,0,0,1,2.81-1.13l5.39-.36a.91.91,0,0,1,.86.55l2.23,3.91c.2.44-.61,1.48-1,1.68l-8.8,7.49C466.64,267.28,465.85,266.43,466.17,265.68Z"/><path class="cls-1" d="M980.63,311a5,5,0,0,0,.2,2.29l.17.53,1,3.25c.91,2.81-.76,5.87-3.22,5.87H968.31c-2.48,0-4.16-3.15-3.18-6l.19-.53c.08-.25.14-.5.2-.76a5.85,5.85,0,0,0,.05-1.39l-2.08-23.16c-.23-2.53,1.37-4.75,3.44-4.75h12.93c2.14,0,3.77,2.38,3.42,5Z"/><path class="cls-2" d="M1125.32,279.2a3.82,3.82,0,0,1,4.57,4.14l-2.62,21.28a3.81,3.81,0,0,1-5.1,3.05l-6.2-2.22a2.65,2.65,0,0,0-.66-.16l-.29-.05-18-1.72-9.93-.95-12-1.14-10.74-1-41.8-4a3.78,3.78,0,0,1-3.45-4.18l2.86-23.36a3.8,3.8,0,0,1,4.48-3.21l28.43,5.13,9.31,1.68,13.45,2.42,9.71,1.75,25.79,4.65a3.93,3.93,0,0,0,1.45,0l.26,0Z"/><path class="cls-1" d="M908.31,252.74l-15.76-4.15-16.47-17.23a2.61,2.61,0,0,0-4,.23,2.68,2.68,0,0,0,.27,3.45l17.42,18.22,22,5.82"/><path class="cls-1" d="M904.64,252.26a3.43,3.43,0,0,1,.74-1.23A3.7,3.7,0,0,1,907,250l5.71-1.81,11.19-3.55,7.62-2.41,9.59-3,7.67-2.43,91.67-29a3.77,3.77,0,0,1,4.88,3.2l7.66,72a5.06,5.06,0,0,1-4.68,5.59l-96.13,6.67-7.58.52-11.25.78-5.32.37a3.78,3.78,0,0,0-3.74,3.26l-1.08,8-1.19,8.84-1.52,11.27a3.91,3.91,0,0,0,.12,1.56.74.74,0,0,1,0,.14l1.55,4.65a3.76,3.76,0,0,1-3.57,5H904.38a3.76,3.76,0,0,1-3.51-5.16,4.59,4.59,0,0,0,.33-1.36,2.57,2.57,0,0,0,0-.48l-2-27.82-.53-7.44a4,4,0,0,1,0-.77l.62-4.66,4.26-32.33"/><path class="cls-2" d="M1020,364.66a3.3,3.3,0,0,1-3,4.38H993.94a3.28,3.28,0,0,1-3.08-4l1.72-8.46v-.07a3,3,0,0,0,.06-.73l-.27-10.56-.26-9.86-.42-16L991.42,309l-1.29-48.79a3.26,3.26,0,0,1,3.15-3.43H1018a3.26,3.26,0,0,1,3.15,3.53l-1.91,35-.54,9.9-.91,16.63-.49,9.14-1.14,20.85a2.9,2.9,0,0,0,.14,1.17s0,.05,0,.07Z"/><path d="M1017,369H993.94a3.28,3.28,0,0,1-3.08-4l1.72-8.46v-.07l23.75-3.48s0,.05,0,.07l3.65,11.58A3.3,3.3,0,0,1,1017,369Z"/><path d="M1129.89,283.34l-2.62,21.28a3.81,3.81,0,0,1-5.1,3.05l-6.2-2.22a2.65,2.65,0,0,0-.66-.16l-.38-24.06,10.39-2A3.82,3.82,0,0,1,1129.89,283.34Z"/><path d="M978.83,322.92H968.31c-2.48,0-4.16-3.15-3.18-6l.19-.53c.08-.25.14-.5.2-.76L981,313.8l1,3.25C983,319.86,981.29,322.92,978.83,322.92Z"/><path d="M918.67,339.45h-14.3a3.76,3.76,0,0,1-3.5-5.16,4.59,4.59,0,0,0,.33-1.36l19.45-3.23a.74.74,0,0,1,0,.14l1.55,4.65A3.76,3.76,0,0,1,918.67,339.45Z"/><path d="M923.24,308l-1.19,8.84-16.13-2.47a1.64,1.64,0,0,1,0-3.23Z"/><path d="M917.92,303.81l-18.71.82-.53-7.44a4,4,0,0,1,0-.77l.62-4.66,19.21,8.92A1.64,1.64,0,0,1,917.92,303.81Z"/><path d="M1019.27,295.32l-.54,9.9-19.69-3a1.64,1.64,0,0,1,0-3.24Z"/><path d="M1017.82,321.85l-.49,9.14-17.42-2.66a1.64,1.64,0,0,1,0-3.24Z"/><path d="M1013,315.52l-21.3,3.85L991.42,309l21.53,3.29A1.64,1.64,0,0,1,1013,315.52Z"/><path d="M1012.12,341.63l-19.75,3.57-.26-9.86,20,3.05A1.64,1.64,0,0,1,1012.12,341.63Z"/><path d="M1094,283l3.11,20.53-9.93-.95,3.58-19.62A1.64,1.64,0,0,1,1094,283Z"/><path d="M1077.72,274.88l9.71,1.75-5.33,19a1.64,1.64,0,0,1-3.22-.35Z"/><path d="M1071,278.46l4.16,23-10.74-1,3.35-21.9A1.64,1.64,0,0,1,1071,278.46Z"/><path d="M1055,270.78l9.31,1.68-4.15,17.72a1.64,1.64,0,0,1-3.23-.21Z"/><path d="M920.21,294.13l-15.79-21.75a1.09,1.09,0,0,1-.21-.76L905.83,252a1.13,1.13,0,0,0-.38-.94l-.07-.07A3.7,3.7,0,0,1,907,250l5.71-1.81.5.77a1.1,1.1,0,0,1,.17.69l-1.33,20.7a1.09,1.09,0,0,0,.1.54l10,22.14A1.14,1.14,0,0,1,920.21,294.13Z"/><path d="M934.12,287.49l-.74,8.95-5.32.37a3.74,3.74,0,0,0-2.37.84l.57-8.86a1.27,1.27,0,0,0-.11-.54l-10-22.13a1.14,1.14,0,0,1,2-1.14l15.78,21.74A1.13,1.13,0,0,1,934.12,287.49Z"/><path d="M938.48,284.55,922.7,262.81a1.11,1.11,0,0,1-.21-.76l1.44-17.45,7.62-2.41-1.2,18.55a1.27,1.27,0,0,0,.11.54l10,22.13A1.14,1.14,0,0,1,938.48,284.55Z"/><path d="M953.27,282.26l-1.06,12.88-7.58.52.77-12.09a1.11,1.11,0,0,0-.1-.54l-10-22.13a1.13,1.13,0,0,1,1.95-1.14l15.79,21.74A1.09,1.09,0,0,1,953.27,282.26Z"/><path d="M955.89,276.72,940.1,255a1.25,1.25,0,0,1-.21-.77l1.25-15.05,7.67-2.43-1,16.18a1.14,1.14,0,0,0,.11.54l10,22.13A1.14,1.14,0,0,1,955.89,276.72Z"/><path class="cls-3" d="M1108,146.72a11.84,11.84,0,0,1,4.93-16.08c10.39-5.44,18.91-16.9,21.71-33,5.1-29.36,6.72-60.64-1.22-63.36s-32.09,18.44-49,40.54c-6.26,8.16-10.43,16.6-12.19,24.51a11.9,11.9,0,0,1-13.51,9.19L1000.55,99a11.88,11.88,0,0,1-9.84-13.26,68.1,68.1,0,0,0-1.45-23.25C983.17,35.27,970.15,6,961.81,5s-20,28.19-27.76,57c-3.94,14.69-1.69,27.83,4.4,37.08a11.75,11.75,0,0,1-1.54,14.67l-16.86,17.09a11.87,11.87,0,0,0-3.42,8.26L916,231a11.87,11.87,0,0,0,9.94,11.8l144,23.65a11.87,11.87,0,0,0,13-7.58l33-88.77a11.8,11.8,0,0,0-.66-9.72Z"/><path d="M1046.09,109l-6.6,5.78a9.12,9.12,0,0,1-6.72,2.21l-4.37-.37a9,9,0,0,1-6.49-3.61l-7-9.33a9.07,9.07,0,0,1-1.67-6.91l6-35.56a13.23,13.23,0,0,1,15.08-11l9.78,1.53a13.23,13.23,0,0,1,11,15.08l-6,36.83A9,9,0,0,1,1046.09,109Z"/><path d="M1039.55,256.09a31.22,31.22,0,0,0-8.48-27.26,5.49,5.49,0,1,0-6.94-6.3,5.27,5.27,0,0,0-.07.79,34,34,0,0,0-24.22-4,5.49,5.49,0,1,0-9.07,3.38A31.11,31.11,0,0,0,975,244.48a30,30,0,0,0-.46,6.45l63.57,10.44A30.7,30.7,0,0,0,1039.55,256.09Z"/><circle class="cls-4" cx="959.74" cy="203.59" r="25.3"/><circle cx="969.3" cy="206.17" r="15.4"/><circle cx="958.44" cy="187.29" r="3.3"/><circle class="cls-4" cx="1067.81" cy="216.82" r="25.3"/><circle cx="1077.36" cy="219.4" r="15.4"/><circle cx="1066.51" cy="200.52" r="3.3"/><path class="cls-5" d="M945.77,56.79c3.3-30.84,15-43.95,25.16-24,5,9.07,8.34,21.18,9.77,29.44,1.44,8.62,1,13.39-1.53,16.26s-6.58,5-11.08,9.31c-4.51,4-9.45,10.26-13.74,13.22C945.91,108.75,942.44,87.62,945.77,56.79Z"/><path class="cls-5" d="M1128,89.07c10.86-26.76,4.58-43.13-12.61-31.2-8.12,5.24-16.21,13.7-21,19.85-5,6.44-6.69,10.57-5.9,14s3.24,7,5,12.52c2,5.27,3.54,12.65,5.77,17C1102.9,131.25,1119.21,123.26,1128,89.07Z"/><path d="M1021,172.35l.11-50.24a1.89,1.89,0,0,1,2.18-1.86l16.35,2.62a1.88,1.88,0,0,1,1.48,2.48L1024.64,173A1.89,1.89,0,0,1,1021,172.35Z"/><path d="M1034,188.13l11.72-28.36a1.47,1.47,0,0,0,.1-.69L1043.27,133a1.48,1.48,0,0,1,.19-.88l12.43-20.76a1.43,1.43,0,0,1,1.51-.67l14.89,2.9A1.44,1.44,0,0,1,1073,116l-19.62,18.51a1.44,1.44,0,0,0-.44,1.21l2.85,24.65a1.39,1.39,0,0,1-.24,1l-19,28.11A1.44,1.44,0,0,1,1034,188.13Z"/><path d="M1012,183.08l-4.89-30.29a1.47,1.47,0,0,1,0-.69l8.45-24.83a1.46,1.46,0,0,0,0-.9l-7.34-23.05a1.42,1.42,0,0,0-1.31-1l-15.16-.59a1.44,1.44,0,0,0-1.26,2.23l14.86,22.51a1.47,1.47,0,0,1,.15,1.29l-8.43,23.34a1.43,1.43,0,0,0,0,1l12.1,31.73A1.44,1.44,0,0,0,1012,183.08Z"/><path d="M983.27,150.08c.06-5.08-10.92-14.78-24.08-11.39-13,2.93-25.68,13.07-26.2,13.89-.3,1.13,12.21-5.43,25.82-4.49C972.54,148.79,983.17,155.19,983.27,150.08Z"/><path d="M1064.22,164.65c1.85-4.25,14.59-8.2,24.26-.48,9.73,7.29,16.46,20.43,16.59,21.31-.18,1.05-8.12-9.07-19.78-13.36C1073.62,167.58,1062.41,168.94,1064.22,164.65Z"/><g class="cls-6"><path class="cls-7" d="M1008.7,250.57c-7.83-.39-14.75-6.11-17.61-14.58a2.83,2.83,0,0,1,1.37-3.48,2.27,2.27,0,0,1,3.06,1.51c2.19,6.5,7.47,10.9,13.45,11.19s11.65-3.56,14.47-9.82a2.27,2.27,0,0,1,3.19-1.2,2.83,2.83,0,0,1,1,3.6C1024,245.94,1016.54,251,1008.7,250.57Z"/></g><polygon class="cls-8" points="978.28 212.94 971.85 211.08 968.13 216.64 966.53 210.14 959.85 209.7 964.68 205.06 961.72 199.06 968.15 200.92 971.87 195.36 973.47 201.86 980.15 202.3 975.32 206.94 978.28 212.94"/><polygon class="cls-8" points="947.28 209.94 940.85 208.08 937.13 213.64 935.53 207.14 928.85 206.7 933.68 202.06 930.72 196.06 937.15 197.92 940.87 192.36 942.47 198.86 949.15 199.3 944.32 203.94 947.28 209.94"/><polygon class="cls-8" points="1088.28 227.94 1081.85 226.08 1078.13 231.64 1076.53 225.14 1069.85 224.7 1074.68 220.06 1071.72 214.06 1078.15 215.92 1081.87 210.36 1083.47 216.86 1090.15 217.3 1085.32 221.94 1088.28 227.94"/><polygon class="cls-8" points="1120.28 218.94 1113.85 217.08 1110.13 222.64 1108.53 216.14 1101.85 215.7 1106.68 211.06 1103.72 205.06 1110.15 206.92 1113.87 201.36 1115.47 207.86 1122.15 208.3 1117.32 212.94 1120.28 218.94"/><polygon class="cls-8" points="1141.28 232.94 1134.85 231.08 1131.13 236.64 1129.53 230.14 1122.85 229.7 1127.68 225.06 1124.72 219.06 1131.15 220.92 1134.87 215.36 1136.47 221.86 1143.15 222.3 1138.32 226.94 1141.28 232.94"/><polygon class="cls-8" points="1126.28 192.94 1119.85 191.08 1116.13 196.64 1114.53 190.14 1107.85 189.7 1112.68 185.06 1109.72 179.06 1116.15 180.92 1119.87 175.36 1121.47 181.86 1128.15 182.3 1123.32 186.94 1126.28 192.94"/><polygon class="cls-8" points="1139.28 154.94 1132.85 153.08 1129.13 158.64 1127.53 152.14 1120.85 151.7 1125.68 147.06 1122.72 141.06 1129.15 142.92 1132.87 137.36 1134.47 143.86 1141.15 144.3 1136.32 148.94 1139.28 154.94"/><polygon class="cls-8" points="953.28 182.94 946.85 181.08 943.13 186.64 941.53 180.14 934.85 179.7 939.68 175.06 936.72 169.06 943.15 170.92 946.87 165.36 948.47 171.86 955.15 172.3 950.32 176.94 953.28 182.94"/><polygon class="cls-8" points="920.28 186.94 913.85 185.08 910.13 190.64 908.53 184.14 901.85 183.7 906.68 179.06 903.72 173.06 910.15 174.92 913.87 169.36 915.47 175.86 922.15 176.3 917.32 180.94 920.28 186.94"/><polygon class="cls-8" points="904.28 214.94 897.85 213.08 894.13 218.64 892.53 212.14 885.85 211.7 890.68 207.06 887.72 201.06 894.15 202.92 897.87 197.36 899.47 203.86 906.15 204.3 901.32 208.94 904.28 214.94"/><polygon class="cls-8" points="914.28 118.94 907.85 117.08 904.13 122.64 902.53 116.14 895.85 115.7 900.68 111.06 897.72 105.06 904.15 106.92 907.87 101.36 909.47 107.86 916.15 108.3 911.32 112.94 914.28 118.94"/><polygon class="cls-8" points="914.28 72.94 907.85 71.08 904.13 76.64 902.53 70.14 895.85 69.7 900.68 65.06 897.72 59.06 904.15 60.92 907.87 55.36 909.47 61.86 916.15 62.3 911.32 66.94 914.28 72.94"/><polygon class="cls-8" points="920.28 147.94 913.85 146.08 910.13 151.64 908.53 145.14 901.85 144.7 906.68 140.06 903.72 134.06 910.15 135.92 913.87 130.36 915.47 136.86 922.15 137.3 917.32 141.94 920.28 147.94"/><polygon class="cls-8" points="901.28 164.94 894.85 163.08 891.13 168.64 889.53 162.14 882.85 161.7 887.68 157.06 884.72 151.06 891.15 152.92 894.87 147.36 896.47 153.86 903.15 154.3 898.32 158.94 901.28 164.94"/><path d="M863.47,223.55h0a1,1,0,0,0,1.31-.86l-.29-11.27a.94.94,0,0,1,1.68-.56l4.75,8.06a5.11,5.11,0,0,0,.54.75l2.89,3.28a4.93,4.93,0,0,1,1.2,2.78l.49,5.38a.91.91,0,0,1-.54.87l-3.85,2.32c-.44.22-1.5-.57-1.7-.94l-7.7-8.62C861.88,224.07,862.71,223.26,863.47,223.55Z"/></svg>
