<svg id="Layer_1" data-name="Layer 1" xmlns="http://www.w3.org/2000/svg" width="245" height="245" viewBox="0 0 245 245"><title>svane_icon</title><path d="M242.55,53.09c0,13-17.4,35.6-29.8,35.6-2.4,0-7.8-2.2-7.8-4.4,0-5.2,10.6-13.4,17.6-13.4,1.8,0,4.4-.2,6-1.2,4.4-3,9-11.8,9-17,0-4.8-1.6-7.4-12.2-7.4-11,0-48,14-48,31.2,0,13,25.2,20.8,31.2,43.8,5.8.6,29.6,3.2,29.6,8.8,0,.8-.4,2.4-1.6,2.4a26.46,26.46,0,0,1-4.8-.8c-2.8-.8-2.2-2.4-5-3.2a97.93,97.93,0,0,0-17.4-3.2,53.17,53.17,0,0,1,1.2,12.4c0,28.4-19.8,54.4-40.8,71.4-20.6,16.6-49.4,26-71.39,26-21.2,0-35.8-10-35.8-31.2,0-25,24-52.8,60.79-69.2,25.6-11.4,47.4-14.4,71.4-14.4-8.8-19-32.8-28-32.8-40.6,0-21.6,44.6-38,62.8-38C234.35,40.69,242.55,42.69,242.55,53.09ZM69.16,202.69c0,16,9.8,22,25.4,22,21.19,0,47.59-9.4,66.19-24.8,18.2-15,36.8-37.6,36.8-62.6,0-5-.2-9.2-1.6-13.6-25,0-47.2,3.2-70.8,13.6C90.36,152.89,69.16,179.29,69.16,202.69Z"/><path d="M57,184.53a9.78,9.78,0,0,1-12.58,5.73C30,185,4.82,170,2.69,130c-3-56.24,22.87,7.53,46.21,13.12S20.72,114.77,19,83.5,40.47,101,60.28,117,26.37,74,27.09,49.46,36.23-5.93,40.88,21.91,70.19,111.36,88.29,126s-5,20-18,35C63.76,168.51,59.47,177.89,57,184.53Z"/></svg>
