<?xml version="1.0" standalone="no"?>
<!DOCTYPE svg PUBLIC "-//W3C//DTD SVG 20010904//EN"
 "http://www.w3.org/TR/2001/REC-SVG-20010904/DTD/svg10.dtd">
<svg version="1.0" xmlns="http://www.w3.org/2000/svg"
 width="152.000000pt" height="152.000000pt" viewBox="0 0 152.000000 152.000000"
 preserveAspectRatio="xMidYMid meet">
<metadata>
Created by potrace 1.11, written by Peter Selinger 2001-2013
</metadata>
<g transform="translate(0.000000,152.000000) scale(0.100000,-0.100000)"
fill="#000000" stroke="none">
<path d="M231 1433 c-15 -30 -38 -164 -36 -215 3 -62 40 -138 135 -279 115
-172 75 -150 -66 36 -34 44 -71 88 -82 98 -20 18 -21 18 -29 0 -13 -25 -6 -89
16 -137 18 -40 68 -109 152 -211 32 -38 38 -51 26 -53 -35 -7 -108 50 -194
149 -17 21 -42 44 -56 54 -24 16 -26 15 -37 -5 -14 -26 -11 -159 5 -220 28
-105 102 -197 194 -240 72 -33 89 -25 136 67 32 62 54 89 110 136 104 87 109
106 45 168 -89 86 -204 332 -260 554 -28 111 -41 131 -59 98z"/>
<path d="M1310 1273 c-73 -11 -197 -64 -257 -110 -17 -13 -40 -42 -51 -64 -28
-56 -16 -83 66 -160 61 -57 102 -105 102 -120 0 -3 -44 -9 -97 -12 -216 -14
-433 -111 -563 -254 -74 -80 -105 -150 -104 -233 0 -75 18 -114 68 -146 133
-88 434 -10 607 157 130 125 190 247 191 386 l0 65 37 -7 c20 -3 49 -13 65
-21 38 -18 56 -18 56 1 0 17 -33 32 -89 41 -20 4 -43 8 -51 9 -8 2 -18 4 -21
4 -4 1 -13 16 -20 34 -7 17 -48 69 -91 114 -82 86 -90 105 -62 152 50 85 290
172 326 119 23 -35 -26 -128 -68 -128 -51 0 -122 -55 -110 -85 15 -41 70 -30
131 26 80 74 111 181 61 214 -24 16 -83 24 -126 18z m-120 -514 c9 -32 3 -104
-11 -148 -22 -69 -73 -145 -150 -222 -64 -64 -95 -86 -171 -123 -106 -50 -175
-69 -262 -69 -133 -1 -182 75 -135 212 62 179 298 331 569 365 132 17 153 15
160 -15z"/>
</g>
</svg>
